<?xml version="1.0" encoding="UTF-8" standalone="no"?>
<!DOCTYPE svg PUBLIC "-//W3C//DTD SVG 1.1//EN"
 "http://www.w3.org/Graphics/SVG/1.1/DTD/svg11.dtd">
<!-- Generated by graphviz version 2.47.1 (0)
 -->
<!-- Title: snakemake_dag Pages: 1 -->
<svg width="221pt" height="404pt"
 viewBox="0.00 0.00 220.50 404.00" xmlns="http://www.w3.org/2000/svg" xmlns:xlink="http://www.w3.org/1999/xlink">
<g id="graph0" class="graph" transform="scale(1 1) rotate(0) translate(4 400)">
<title>snakemake_dag</title>
<polygon fill="white" stroke="transparent" points="-4,4 -4,-400 216.5,-400 216.5,4 -4,4"/>
<!-- 0 -->
<g id="node1" class="node">
<title>0</title>
<path fill="none" stroke="#d85656" stroke-width="2" d="M84.5,-36C84.5,-36 54.5,-36 54.5,-36 48.5,-36 42.5,-30 42.5,-24 42.5,-24 42.5,-12 42.5,-12 42.5,-6 48.5,0 54.5,0 54.5,0 84.5,0 84.5,0 90.5,0 96.5,-6 96.5,-12 96.5,-12 96.5,-24 96.5,-24 96.5,-30 90.5,-36 84.5,-36"/>
<text text-anchor="middle" x="69.5" y="-15.5" font-family="sans" font-size="10.00">all</text>
</g>
<!-- 1 -->
<g id="node2" class="node">
<title>1</title>
<path fill="none" stroke="#bed856" stroke-width="2" d="M96,-108C96,-108 43,-108 43,-108 37,-108 31,-102 31,-96 31,-96 31,-84 31,-84 31,-78 37,-72 43,-72 43,-72 96,-72 96,-72 102,-72 108,-78 108,-84 108,-84 108,-96 108,-96 108,-102 102,-108 96,-108"/>
<text text-anchor="middle" x="69.5" y="-87.5" font-family="sans" font-size="10.00">reads_multiqc</text>
</g>
<!-- 1&#45;&gt;0 -->
<g id="edge1" class="edge">
<title>1&#45;&gt;0</title>
<path fill="none" stroke="grey" stroke-width="2" d="M69.5,-71.7C69.5,-63.98 69.5,-54.71 69.5,-46.11"/>
<polygon fill="grey" stroke="grey" stroke-width="2" points="73,-46.1 69.5,-36.1 66,-46.1 73,-46.1"/>
</g>
<!-- 2 -->
<g id="node3" class="node">
<title>2</title>
<path fill="none" stroke="#d8bc56" stroke-width="2" d="M61,-180C61,-180 12,-180 12,-180 6,-180 0,-174 0,-168 0,-168 0,-156 0,-156 0,-150 6,-144 12,-144 12,-144 61,-144 61,-144 67,-144 73,-150 73,-156 73,-156 73,-168 73,-168 73,-174 67,-180 61,-180"/>
<text text-anchor="middle" x="36.5" y="-159.5" font-family="sans" font-size="10.00">reads_fastqc</text>
</g>
<!-- 2&#45;&gt;0 -->
<g id="edge2" class="edge">
<title>2&#45;&gt;0</title>
<path fill="none" stroke="grey" stroke-width="2" d="M28.36,-143.73C20.91,-125.4 12.31,-95.83 21.5,-72 25.6,-61.36 32.94,-51.53 40.67,-43.3"/>
<polygon fill="grey" stroke="grey" stroke-width="2" points="43.17,-45.75 47.79,-36.21 38.23,-40.78 43.17,-45.75"/>
</g>
<!-- 2&#45;&gt;1 -->
<g id="edge4" class="edge">
<title>2&#45;&gt;1</title>
<path fill="none" stroke="grey" stroke-width="2" d="M44.66,-143.7C48.41,-135.73 52.95,-126.1 57.12,-117.26"/>
<polygon fill="grey" stroke="grey" stroke-width="2" points="60.34,-118.64 61.44,-108.1 54.01,-115.66 60.34,-118.64"/>
</g>
<!-- 3 -->
<g id="node4" class="node">
<title>3</title>
<path fill="none" stroke="#59d856" stroke-width="2" d="M182.5,-108C182.5,-108 138.5,-108 138.5,-108 132.5,-108 126.5,-102 126.5,-96 126.5,-96 126.5,-84 126.5,-84 126.5,-78 132.5,-72 138.5,-72 138.5,-72 182.5,-72 182.5,-72 188.5,-72 194.5,-78 194.5,-84 194.5,-84 194.5,-96 194.5,-96 194.5,-102 188.5,-108 182.5,-108"/>
<text text-anchor="middle" x="160.5" y="-87.5" font-family="sans" font-size="10.00">bam_bigwig</text>
</g>
<!-- 3&#45;&gt;0 -->
<g id="edge3" class="edge">
<title>3&#45;&gt;0</title>
<path fill="none" stroke="grey" stroke-width="2" d="M138.01,-71.7C126.54,-62.88 112.44,-52.03 100.02,-42.47"/>
<polygon fill="grey" stroke="grey" stroke-width="2" points="101.8,-39.43 91.74,-36.1 97.53,-44.98 101.8,-39.43"/>
</g>
<!-- 4 -->
<g id="node5" class="node">
<title>4</title>
<path fill="none" stroke="#56d8c1" stroke-width="2" d="M177,-180C177,-180 144,-180 144,-180 138,-180 132,-174 132,-168 132,-168 132,-156 132,-156 132,-150 138,-144 144,-144 144,-144 177,-144 177,-144 183,-144 189,-150 189,-156 189,-156 189,-168 189,-168 189,-174 183,-180 177,-180"/>
<text text-anchor="middle" x="160.5" y="-159.5" font-family="sans" font-size="10.00">bam_sort</text>
</g>
<!-- 4&#45;&gt;3 -->
<g id="edge5" class="edge">
<title>4&#45;&gt;3</title>
<path fill="none" stroke="grey" stroke-width="2" d="M160.5,-143.7C160.5,-135.98 160.5,-126.71 160.5,-118.11"/>
<polygon fill="grey" stroke="grey" stroke-width="2" points="164,-118.1 160.5,-108.1 157,-118.1 164,-118.1"/>
</g>
<!-- 5 -->
<g id="node6" class="node">
<title>5</title>
<path fill="none" stroke="#d88d56" stroke-width="2" d="M189.5,-252C189.5,-252 131.5,-252 131.5,-252 125.5,-252 119.5,-246 119.5,-240 119.5,-240 119.5,-228 119.5,-228 119.5,-222 125.5,-216 131.5,-216 131.5,-216 189.5,-216 189.5,-216 195.5,-216 201.5,-222 201.5,-228 201.5,-228 201.5,-240 201.5,-240 201.5,-246 195.5,-252 189.5,-252"/>
<text text-anchor="middle" x="160.5" y="-231.5" font-family="sans" font-size="10.00">align_reads_se</text>
</g>
<!-- 5&#45;&gt;4 -->
<g id="edge6" class="edge">
<title>5&#45;&gt;4</title>
<path fill="none" stroke="grey" stroke-width="2" d="M160.5,-215.7C160.5,-207.98 160.5,-198.71 160.5,-190.11"/>
<polygon fill="grey" stroke="grey" stroke-width="2" points="164,-190.1 160.5,-180.1 157,-190.1 164,-190.1"/>
</g>
<!-- 6 -->
<g id="node7" class="node">
<title>6</title>
<path fill="none" stroke="#88d856" stroke-width="2" d="M188,-324C188,-324 133,-324 133,-324 127,-324 121,-318 121,-312 121,-312 121,-300 121,-300 121,-294 127,-288 133,-288 133,-288 188,-288 188,-288 194,-288 200,-294 200,-300 200,-300 200,-312 200,-312 200,-318 194,-324 188,-324"/>
<text text-anchor="middle" x="160.5" y="-303.5" font-family="sans" font-size="10.00">bowtie2_index</text>
</g>
<!-- 6&#45;&gt;5 -->
<g id="edge7" class="edge">
<title>6&#45;&gt;5</title>
<path fill="none" stroke="grey" stroke-width="2" d="M160.5,-287.7C160.5,-279.98 160.5,-270.71 160.5,-262.11"/>
<polygon fill="grey" stroke="grey" stroke-width="2" points="164,-262.1 160.5,-252.1 157,-262.1 164,-262.1"/>
</g>
<!-- 7 -->
<g id="node8" class="node">
<title>7</title>
<path fill="none" stroke="#56c1d8" stroke-width="2" d="M200.5,-396C200.5,-396 120.5,-396 120.5,-396 114.5,-396 108.5,-390 108.5,-384 108.5,-384 108.5,-372 108.5,-372 108.5,-366 114.5,-360 120.5,-360 120.5,-360 200.5,-360 200.5,-360 206.5,-360 212.5,-366 212.5,-372 212.5,-372 212.5,-384 212.5,-384 212.5,-390 206.5,-396 200.5,-396"/>
<text text-anchor="middle" x="160.5" y="-375.5" font-family="sans" font-size="10.00">download_reference</text>
</g>
<!-- 7&#45;&gt;6 -->
<g id="edge8" class="edge">
<title>7&#45;&gt;6</title>
<path fill="none" stroke="grey" stroke-width="2" d="M160.5,-359.7C160.5,-351.98 160.5,-342.71 160.5,-334.11"/>
<polygon fill="grey" stroke="grey" stroke-width="2" points="164,-334.1 160.5,-324.1 157,-334.1 164,-334.1"/>
</g>
</g>
</svg>
